<?xml version="1.0" standalone="no"?>
<!DOCTYPE svg PUBLIC "-//W3C//DTD SVG 20010904//EN"
 "http://www.w3.org/TR/2001/REC-SVG-20010904/DTD/svg10.dtd">
<svg version="1.0" xmlns="http://www.w3.org/2000/svg"
 width="512.000000pt" height="512.000000pt" viewBox="0 0 512.000000 512.000000"
 preserveAspectRatio="xMidYMid meet">
<metadata>
Created by potrace 1.14, written by Peter Selinger 2001-2017
</metadata>
<g transform="translate(0.000000,512.000000) scale(0.100000,-0.100000)"
fill="#000000" stroke="none">
<path d="M2379 5116 c-2 -2 -35 -6 -74 -9 -168 -15 -413 -69 -590 -130 -177
-62 -261 -101 -490 -231 -11 -6 -54 -35 -97 -63 -422 -288 -765 -712 -946
-1173 -55 -141 -105 -302 -126 -410 -44 -224 -51 -299 -50 -550 0 -113 3 -232
8 -265 4 -33 10 -76 12 -95 3 -19 7 -46 10 -60 2 -14 9 -47 14 -75 10 -59 55
-232 75 -290 187 -553 536 -1013 1015 -1335 111 -75 247 -150 363 -201 50 -22
101 -44 112 -49 55 -25 262 -90 348 -110 120 -27 111 -25 172 -34 28 -4 61
-10 75 -12 114 -19 472 -26 600 -12 96 11 153 19 175 23 340 64 606 161 864
313 463 273 837 689 1045 1162 61 138 62 141 92 230 35 106 28 83 64 230 28
118 35 154 45 232 26 199 28 535 4 683 -4 28 -10 68 -13 90 -3 22 -8 51 -11
65 -3 14 -10 45 -15 70 -52 262 -188 589 -343 829 -319 493 -782 855 -1342
1049 -70 25 -284 81 -335 88 -19 3 -46 7 -60 9 -14 3 -41 7 -60 10 -19 3 -53
7 -75 11 -44 6 -460 15 -466 10z"/>
</g>
</svg>
